<svg width="30" height="30" viewBox="0 0 30 30" fill="none" xmlns="http://www.w3.org/2000/svg">
<path d="M15 0.21875C6.97266 0.21875 0.46875 6.72266 0.46875 14.75C0.46875 22.7773 6.97266 29.2812 15 29.2812C23.0273 29.2812 29.5312 22.7773 29.5312 14.75C29.5312 6.72266 23.0273 0.21875 15 0.21875ZM20.3906 18.5586L19.2188 20.0234C19.043 20.2578 18.8086 20.4336 18.457 20.4336C18.2812 20.4336 18.0469 20.3164 17.9297 20.1992L14.0039 17.2695C13.418 16.8594 13.125 16.2148 13.125 15.4531V6.3125C13.125 5.84375 13.5352 5.375 14.0625 5.375H15.9375C16.4062 5.375 16.875 5.84375 16.875 6.3125V14.75L20.2734 17.2695C20.4492 17.4453 20.625 17.6797 20.625 17.9727C20.625 18.207 20.5078 18.4414 20.3906 18.5586Z" fill="#7C58D3"/>
</svg>
