<svg width="23" height="31" viewBox="0 0 23 31" fill="none" xmlns="http://www.w3.org/2000/svg">
<path d="M10.3281 30.1641C10.8555 30.9844 12.0859 30.9844 12.6133 30.1641C21.168 17.8594 22.75 16.5703 22.75 12C22.75 5.78906 17.7109 0.75 11.5 0.75C5.23047 0.75 0.25 5.78906 0.25 12C0.25 16.5703 1.77344 17.8594 10.3281 30.1641ZM11.5 16.6875C8.86328 16.6875 6.8125 14.6367 6.8125 12C6.8125 9.42188 8.86328 7.3125 11.5 7.3125C14.0781 7.3125 16.1875 9.42188 16.1875 12C16.1875 14.6367 14.0781 16.6875 11.5 16.6875Z" fill="#7C58D3"/>
</svg>
