<svg width="30" height="23" viewBox="0 0 30 23" fill="none" xmlns="http://www.w3.org/2000/svg">
<path d="M29.4141 7.94141C28.0664 8.99609 26.3672 10.2852 20.3906 14.6211C19.2188 15.5 17.0508 17.4336 15 17.4336C12.8906 17.4336 10.7812 15.5 9.55078 14.6211C3.57422 10.2852 1.875 8.99609 0.527344 7.94141C0.292969 7.76562 0 7.94141 0 8.23438V20.1875C0 21.7695 1.23047 23 2.8125 23H27.1875C28.7109 23 30 21.7695 30 20.1875V8.23438C30 7.94141 29.6484 7.76562 29.4141 7.94141ZM15 15.5C16.3477 15.5586 18.2812 13.8008 19.2773 13.0977C27.0703 7.47266 27.6562 6.94531 29.4141 5.53906C29.7656 5.30469 30 4.89453 30 4.42578V3.3125C30 1.78906 28.7109 0.5 27.1875 0.5H2.8125C1.23047 0.5 0 1.78906 0 3.3125V4.42578C0 4.89453 0.175781 5.30469 0.527344 5.53906C2.28516 6.94531 2.87109 7.47266 10.6641 13.0977C11.6602 13.8008 13.5938 15.5586 15 15.5Z" fill="#7C58D3"/>
</svg>
