<svg width="31" height="31" viewBox="0 0 31 31" fill="none" xmlns="http://www.w3.org/2000/svg">
<path d="M29.1836 21.9609L22.6211 19.1484C22.4453 19.0898 22.2695 19.0312 22.0352 19.0312C21.625 19.0312 21.2148 19.2656 20.9805 19.5586L18.0508 23.1328C13.4805 20.9648 9.84766 17.332 7.67969 12.7617L11.2539 9.83203C11.5469 9.59766 11.7812 9.1875 11.7812 8.71875C11.7812 8.54297 11.7227 8.36719 11.6641 8.19141L8.85156 1.62891C8.61719 1.10156 8.08984 0.75 7.50391 0.75C7.44531 0.75 7.32812 0.808594 7.21094 0.808594L1.11719 2.21484C0.472656 2.39062 0.0625 2.91797 0.0625 3.5625C0.0625 18.6211 12.1914 30.75 27.25 30.75C27.8945 30.75 28.4219 30.3398 28.5977 29.6953L30.0039 23.6016C30.0039 23.4844 30.0039 23.3672 30.0039 23.3086C30.0039 22.7227 29.6523 22.1953 29.1836 21.9609Z" fill="white"/>
</svg>
