<svg width="61" height="60" viewBox="0 0 61 60" fill="none" xmlns="http://www.w3.org/2000/svg">
<g clip-path="url(#clip0_606_110)">
<rect x="1.06738" y="1.00073" width="57.9972" height="58" rx="7" fill="#FBF9FF" stroke="#EBE5F7" stroke-width="2"/>
<path d="M43.0662 30.2507C43.0662 28.3718 41.8474 26.7468 40.1209 26.0867C40.8826 24.4617 40.5779 22.4304 39.2576 21.0593C37.8865 19.739 35.8553 19.4343 34.2303 20.196C33.5701 18.4695 31.9451 17.2507 30.0662 17.2507C28.1365 17.2507 26.5115 18.4695 25.8514 20.196C24.2264 19.4343 22.1951 19.739 20.8748 21.0593C19.5037 22.4304 19.199 24.4617 19.9607 26.0867C18.2342 26.7468 17.0662 28.3718 17.0662 30.2507C17.0662 32.1804 18.2342 33.8054 19.9607 34.4656C19.199 36.0906 19.5037 38.1218 20.8748 39.4421C22.1951 40.8132 24.2264 41.1179 25.8514 40.3562C26.5115 42.0828 28.1365 43.2507 30.0662 43.2507C31.9451 43.2507 33.5701 42.0828 34.2303 40.3562C35.906 41.1179 37.8865 40.8132 39.2576 39.4421C40.5779 38.1218 40.8826 36.0906 40.1209 34.4656C41.8474 33.8054 43.0662 32.1804 43.0662 30.2507ZM26.8162 25.3757C27.6795 25.3757 28.4412 26.1375 28.4412 27.0007C28.4412 27.9148 27.6795 28.6257 26.8162 28.6257C25.9021 28.6257 25.1912 27.9148 25.1912 27.0007C25.1912 26.1375 25.9021 25.3757 26.8162 25.3757ZM27.4256 34.6179C27.1209 34.9226 26.5623 34.9226 26.2576 34.6179L25.699 34.0593C25.3943 33.7546 25.3943 33.196 25.699 32.8914L32.656 25.9343C32.9607 25.6296 33.5193 25.6296 33.824 25.9343L34.3826 26.4929C34.6873 26.7976 34.6873 27.3562 34.3826 27.6609L27.4256 34.6179ZM33.3162 35.1257C32.4021 35.1257 31.6912 34.4148 31.6912 33.5007C31.6912 32.6375 32.4021 31.8757 33.3162 31.8757C34.1795 31.8757 34.9412 32.6375 34.9412 33.5007C34.9412 34.4148 34.1795 35.1257 33.3162 35.1257Z" fill="#7C58D3"/>
</g>
<defs>
<clipPath id="clip0_606_110">
<rect width="59.9972" height="60" fill="white" transform="translate(0.0673828 0.000732422)"/>
</clipPath>
</defs>
</svg>
