<svg width="61" height="60" viewBox="0 0 61 60" fill="none" xmlns="http://www.w3.org/2000/svg">
<g clip-path="url(#clip0_606_1116)">
<rect x="1.06738" y="1.00073" width="57.9972" height="58" rx="7" fill="#FBF9FF" stroke="#EBE5F7" stroke-width="2"/>
<path d="M40.7303 21.5164L30.9803 17.4539C30.6756 17.3523 30.3709 17.3015 30.0662 17.3015C29.7107 17.3015 29.406 17.3523 29.1014 17.4539L19.3514 21.5164C18.4373 21.9226 17.8787 22.7859 17.8787 23.7507C17.8787 33.8562 23.6678 40.8132 29.1014 43.0984C29.7107 43.3523 30.3709 43.3523 30.9803 43.0984C35.3474 41.2703 42.2537 35.0242 42.2537 23.7507C42.2537 22.7859 41.6443 21.9226 40.7303 21.5164ZM38.3435 27.3054L28.9998 36.6492C28.6951 37.0046 28.1365 37.0046 27.8318 36.6492L22.5506 31.3679C22.2459 31.0632 22.2459 30.5554 22.5506 30.2507L23.7185 29.0828C24.0232 28.7781 24.531 28.7781 24.8357 29.0828L28.4412 32.6375L36.0584 25.0203C36.3631 24.7156 36.8709 24.7156 37.1756 25.0203L38.3435 26.1882C38.6482 26.4929 38.6482 27.0007 38.3435 27.3054Z" fill="#7C58D3"/>
</g>
<defs>
<clipPath id="clip0_606_1116">
<rect width="59.9972" height="60" fill="white" transform="translate(0.0673828 0.000732422)"/>
</clipPath>
</defs>
</svg>
