<svg width="60" height="60" viewBox="0 0 60 60" fill="none" xmlns="http://www.w3.org/2000/svg">
<g id="Service-5">
<g id="Group ">
<path id="Fill 163" fill-rule="evenodd" clip-rule="evenodd" d="M41.7624 24.5536V47.3821H37.7391V34.7397C37.7391 30.818 34.5586 27.6432 30.6426 27.6432H30.416V13.2129L41.7624 24.5536Z" fill="#A84A37"/>
<path id="Fill 164" fill-rule="evenodd" clip-rule="evenodd" d="M30.4163 13.213V27.6433C26.5339 27.6887 23.3994 30.847 23.3994 34.7397V47.3821H19.0586V24.5599L30.4112 13.2073L30.4163 13.213Z" fill="#AD513B"/>
<path id="Fill 165" fill-rule="evenodd" clip-rule="evenodd" d="M19.0587 24.5598V52H15.5732V28.0453L19.0587 24.5598Z" fill="#BE6A4B"/>
<path id="Fill 166" fill-rule="evenodd" clip-rule="evenodd" d="M30.4163 8.28936V13.2021L13.4677 30.1501L11 27.6835L30.4049 8.27856L30.4112 8.28368L30.4163 8.28936Z" fill="#CA7055"/>
<path id="Fill 167" fill-rule="evenodd" clip-rule="evenodd" d="M49.8266 27.6835L47.3589 30.1501L30.416 13.2129V8.27856L49.8266 27.6835Z" fill="#BE6A4B"/>
<path id="Fill 168" fill-rule="evenodd" clip-rule="evenodd" d="M45.2544 28.0452V51.9999H41.7627V24.5535L45.2544 28.0452Z" fill="#B2573F"/>
<path id="Fill 169" fill-rule="evenodd" clip-rule="evenodd" d="M30.4164 8.27858V8.28937L30.4113 8.28369L30.4164 8.27858Z" fill="#D4C0D4"/>
<path id="Fill 170" fill-rule="evenodd" clip-rule="evenodd" d="M30.4113 13.2073L30.4164 13.2022V13.213L30.4113 13.2073Z" fill="#DFA278"/>
<path id="Fill 171" fill-rule="evenodd" clip-rule="evenodd" d="M19.0586 49.9293H30.4163V47.3821H19.0586V49.9293Z" fill="#CA7055"/>
<path id="Fill 172" fill-rule="evenodd" clip-rule="evenodd" d="M37.7391 34.7395V47.3819H30.416V27.6431H30.6426C34.5586 27.6431 37.7391 30.8179 37.7391 34.7395Z" fill="#49231D"/>
<path id="Fill 173" fill-rule="evenodd" clip-rule="evenodd" d="M30.4164 27.6431V47.3819H23.3994V34.7395C23.3994 30.8468 26.5339 27.6885 30.4164 27.6431Z" fill="#3E201A"/>
<path id="Fill 174" fill-rule="evenodd" clip-rule="evenodd" d="M30.416 49.9293H41.7624V47.3821H30.416V49.9293Z" fill="#BE6A4B"/>
</g>
</g>
</svg>
