<svg width="60" height="60" viewBox="0 0 60 60" fill="none" xmlns="http://www.w3.org/2000/svg">
<g id="Service-2">
<g id="Group ">
<path id="Fill 36" fill-rule="evenodd" clip-rule="evenodd" d="M16.081 9.93335V49.4874C16.081 50.8745 14.9554 52 13.5684 52H13.5187C12.125 52 11 50.8745 11 49.4874L12.8653 9.93335H16.081Z" fill="#E1903F"/>
<path id="Fill 37" fill-rule="evenodd" clip-rule="evenodd" d="M16.8792 12.138H24.6424C24.9823 12.138 25.2579 12.4135 25.2579 12.754V12.7663C25.2579 13.1061 24.9823 13.3817 24.6424 13.3817H16.8792C16.4125 13.3817 16.0335 13.525 16.0335 13.6934V13.6989C16.0335 13.8673 16.4125 14.0045 16.8792 14.0045H24.6424C24.9823 14.0045 25.2579 14.2801 25.2579 14.62V14.6322C25.2579 14.9727 24.9823 15.2483 24.6424 15.2483H16.8792C16.4125 15.2483 16.0335 15.3916 16.0335 15.5594V15.5655C16.0335 15.7333 16.4125 15.8698 16.8792 15.8698H24.6424C24.9823 15.8698 25.2579 16.146 25.2579 16.4859V16.4981C25.2579 16.8386 24.9823 17.1142 24.6424 17.1142H16.8792C16.4125 17.1142 16.0335 17.2575 16.0335 17.4253V17.4314C16.0335 17.5998 16.4125 17.7364 16.8792 17.7364H24.6424C24.9823 17.7364 25.2579 18.012 25.2579 18.3518V18.3647C25.2579 18.7046 24.9823 18.9802 24.6424 18.9802H16.8792C16.4125 18.9802 16.0335 19.1235 16.0335 19.2912V19.2974C16.0335 19.4658 16.4125 19.6023 16.8792 19.6023H24.6424C24.9823 19.6023 25.2579 19.8779 25.2579 20.2184V20.2306C25.2579 20.5705 24.9823 20.8461 24.6424 20.8461H16.8792C16.4125 20.8461 16.0335 20.9894 16.0335 21.1572V21.1639C16.0335 21.3317 16.4125 21.4683 16.8792 21.4683H24.6424C24.9823 21.4683 25.2579 21.7439 25.2579 22.0843V22.0966C25.2579 22.4371 24.9823 22.7127 24.6424 22.7127H16.8792C16.4125 22.7127 16.0335 22.8553 16.0335 23.0237V23.0299C16.0335 23.1977 16.4125 23.3342 16.8792 23.3342H24.6424C24.9823 23.3342 25.2579 23.6104 25.2579 23.9503V23.9625C25.2579 24.3024 24.9823 24.5786 24.6424 24.5786H16.8792C16.4125 24.5786 16.0335 24.7219 16.0335 24.8897V24.8958C16.0335 25.0636 16.4125 25.2008 16.8792 25.2008H24.6424C24.9823 25.2008 25.2579 25.4764 25.2579 25.8162V25.8291C25.2579 26.169 24.9823 26.4445 24.6424 26.4445H16.8792C16.4125 26.4445 16.0335 26.5878 16.0335 26.7556V26.7618C16.0335 26.9302 16.4125 27.0667 16.8792 27.0667H24.6424C24.9823 27.0667 25.2579 27.3423 25.2579 27.6828V27.695C25.2579 28.0349 24.9823 28.3105 24.6424 28.3105H16.8792C16.4125 28.3105 16.0335 28.4538 16.0335 28.6216V28.6277C16.0335 28.7955 16.4125 28.9327 16.8792 28.9327H24.6424C24.9823 28.9327 25.2579 29.2082 25.2579 29.5487V29.561C25.2579 29.9008 24.9823 30.1764 24.6424 30.1764H16.8792C16.4125 30.1764 16.0335 30.3197 16.0335 30.4875V30.4936C16.0335 30.662 16.4125 30.7986 16.8792 30.7986H24.4961C24.9584 30.7986 25.2873 31.3093 25.0411 31.7019C24.613 32.3859 23.5958 32.4037 22.409 32.4037H14.3721V9.92969H22.409C23.5254 9.92969 24.4899 9.94561 24.9578 10.5164C25.2836 10.9138 24.9847 11.5164 24.4709 11.5164H16.8792C16.4125 11.5164 16.0335 11.6591 16.0335 11.8269V11.8336C16.0335 12.0014 16.4125 12.138 16.8792 12.138Z" fill="#E1903F"/>
<path id="Fill 38" fill-rule="evenodd" clip-rule="evenodd" d="M13.5188 50.9007C12.7355 50.9007 12.0986 50.2663 12.0986 49.4873L13.9125 11.0802L13.9621 11.0325H14.9315L14.9811 11.0827V49.4371C14.9811 50.2454 14.3265 50.9007 13.5188 50.9007Z" fill="#EF9E53"/>
<path id="Fill 39" fill-rule="evenodd" clip-rule="evenodd" d="M37.8389 35.3699V51.9999H39.0471C40.2621 51.9999 41.2468 51.0158 41.2468 49.8008L40.1751 35.136C39.4519 35.2866 38.7036 35.3699 37.935 35.3699H37.8389Z" fill="#E1903F"/>
<path id="Fill 40" fill-rule="evenodd" clip-rule="evenodd" d="M37.935 8H37.8389V9.13169H37.935C43.1856 9.13169 47.4423 13.2279 47.4423 18.2814V25.0893C47.4423 30.1421 43.1856 34.2389 37.935 34.2389H37.8389V34.7558H40.147L40.1751 35.1361C44.9683 34.1391 48.574 30.0153 48.574 25.0893V18.2808C48.574 12.6125 43.8011 8 37.935 8Z" fill="#EF9E53"/>
<path id="Fill 41" fill-rule="evenodd" clip-rule="evenodd" d="M32.3449 9.88003L32.4184 9.88431H32.3449V9.88003ZM37.8393 34.7558V34.2389H37.7431C32.4919 34.2389 28.2358 30.1421 28.2358 25.0893V18.2814C28.2358 13.2279 32.4919 9.13169 37.7431 9.13169H37.8393V8H37.7431C31.8765 8 27.1035 12.6125 27.1035 18.2808V25.0893C27.1035 30.0153 30.7092 34.1391 35.503 35.1361L35.5306 34.7558H37.8393Z" fill="#E1903F"/>
<path id="Fill 42" fill-rule="evenodd" clip-rule="evenodd" d="M32.3446 9.87998V9.88426H32.4181L32.3446 9.87998Z" fill="#E1903F"/>
<path id="Fill 43" fill-rule="evenodd" clip-rule="evenodd" d="M35.4768 13.1176C35.0543 13.1176 34.7107 12.7747 34.7107 12.3509C34.7107 11.9278 35.0543 11.5848 35.4768 11.5848C35.9006 11.5848 36.2435 11.9278 36.2435 12.3509C36.2435 12.7747 35.9006 13.1176 35.4768 13.1176ZM35.4768 17.8367C35.0543 17.8367 34.7107 17.4937 34.7107 17.0706C34.7107 16.6474 35.0543 16.3039 35.4768 16.3039C35.9006 16.3039 36.2435 16.6474 36.2435 17.0706C36.2435 17.4937 35.9006 17.8367 35.4768 17.8367ZM35.4768 22.5557C35.0543 22.5557 34.7107 22.2128 34.7107 21.7896C34.7107 21.3665 35.0543 21.0235 35.4768 21.0235C35.9006 21.0235 36.2435 21.3665 36.2435 21.7896C36.2435 22.2128 35.9006 22.5557 35.4768 22.5557ZM35.4768 27.2748C35.0543 27.2748 34.7107 26.9318 34.7107 26.5093C34.7107 26.0855 35.0543 25.7426 35.4768 25.7426C35.9006 25.7426 36.2435 26.0855 36.2435 26.5093C36.2435 26.9318 35.9006 27.2748 35.4768 27.2748ZM35.4768 31.9944C35.0543 31.9944 34.7107 31.6515 34.7107 31.2283C34.7107 30.8052 35.0543 30.4623 35.4768 30.4623C35.9006 30.4623 36.2435 30.8052 36.2435 31.2283C36.2435 31.6515 35.9006 31.9944 35.4768 31.9944ZM33.1075 15.4747C32.685 15.4747 32.3414 15.1318 32.3414 14.7086C32.3414 14.2861 32.685 13.9425 33.1075 13.9425C33.5307 13.9425 33.8736 14.2861 33.8736 14.7086C33.8736 15.1318 33.5307 15.4747 33.1075 15.4747ZM33.1075 20.1944C32.685 20.1944 32.3414 19.8514 32.3414 19.4283C32.3414 19.0051 32.685 18.6622 33.1075 18.6622C33.5307 18.6622 33.8736 19.0051 33.8736 19.4283C33.8736 19.8514 33.5307 20.1944 33.1075 20.1944ZM33.1075 24.9134C32.685 24.9134 32.3414 24.5705 32.3414 24.1473C32.3414 23.7242 32.685 23.3812 33.1075 23.3812C33.5307 23.3812 33.8736 23.7242 33.8736 24.1473C33.8736 24.5705 33.5307 24.9134 33.1075 24.9134ZM33.1075 29.6325C32.685 29.6325 32.3414 29.2901 32.3414 28.8664C32.3414 28.4432 32.685 28.1003 33.1075 28.1003C33.5307 28.1003 33.8736 28.4432 33.8736 28.8664C33.8736 29.2901 33.5307 29.6325 33.1075 29.6325ZM30.7461 17.8367C30.323 17.8367 29.98 17.4937 29.98 17.0706C29.98 16.6474 30.323 16.3039 30.7461 16.3039C31.1693 16.3039 31.5122 16.6474 31.5122 17.0706C31.5122 17.4937 31.1693 17.8367 30.7461 17.8367ZM30.7461 22.5557C30.323 22.5557 29.98 22.2128 29.98 21.7896C29.98 21.3665 30.323 21.0235 30.7461 21.0235C31.1693 21.0235 31.5122 21.3665 31.5122 21.7896C31.5122 22.2128 31.1693 22.5557 30.7461 22.5557ZM30.7461 27.2748C30.323 27.2748 29.98 26.9318 29.98 26.5093C29.98 26.0855 30.323 25.7426 30.7461 25.7426C31.1693 25.7426 31.5122 26.0855 31.5122 26.5093C31.5122 26.9318 31.1693 27.2748 30.7461 27.2748ZM28.2354 18.2813V25.0892C28.2354 30.142 32.4914 34.2388 37.7427 34.2388H37.8388V29.6325C37.4156 29.6325 37.0727 29.2901 37.0727 28.8664C37.0727 28.4432 37.4156 28.1003 37.8388 28.1003V24.9134C37.4156 24.9134 37.0727 24.5705 37.0727 24.1473C37.0727 23.7242 37.4156 23.3812 37.8388 23.3812V20.1944C37.4156 20.1944 37.0727 19.8514 37.0727 19.4283C37.0727 19.0051 37.4156 18.6622 37.8388 18.6622V15.4747C37.4156 15.4747 37.0727 15.1318 37.0727 14.7086C37.0727 14.2861 37.4156 13.9425 37.8388 13.9425V9.13159H37.7427C32.4914 9.13159 28.2354 13.2278 28.2354 18.2813Z" fill="#662C22"/>
<path id="Fill 44" fill-rule="evenodd" clip-rule="evenodd" d="M40.2082 30.4623C40.6314 30.4623 40.9749 30.8052 40.9749 31.2283C40.9749 31.6515 40.6314 31.9944 40.2082 31.9944C39.785 31.9944 39.4421 31.6515 39.4421 31.2283C39.4421 30.8052 39.785 30.4623 40.2082 30.4623ZM40.2082 25.7426C40.6314 25.7426 40.9749 26.0855 40.9749 26.5093C40.9749 26.9318 40.6314 27.2748 40.2082 27.2748C39.785 27.2748 39.4421 26.9318 39.4421 26.5093C39.4421 26.0855 39.785 25.7426 40.2082 25.7426ZM40.2082 21.0235C40.6314 21.0235 40.9749 21.3665 40.9749 21.7896C40.9749 22.2128 40.6314 22.5557 40.2082 22.5557C39.785 22.5557 39.4421 22.2128 39.4421 21.7896C39.4421 21.3665 39.785 21.0235 40.2082 21.0235ZM40.2082 16.3039C40.6314 16.3039 40.9749 16.6474 40.9749 17.0706C40.9749 17.4937 40.6314 17.8367 40.2082 17.8367C39.785 17.8367 39.4421 17.4937 39.4421 17.0706C39.4421 16.6474 39.785 16.3039 40.2082 16.3039ZM40.2082 11.5848C40.6314 11.5848 40.9749 11.9278 40.9749 12.3509C40.9749 12.7747 40.6314 13.1176 40.2082 13.1176C39.785 13.1176 39.4421 12.7747 39.4421 12.3509C39.4421 11.9278 39.785 11.5848 40.2082 11.5848ZM42.5696 28.1003C42.9933 28.1003 43.3357 28.4432 43.3357 28.8664C43.3357 29.2901 42.9933 29.6325 42.5696 29.6325C42.147 29.6325 41.8035 29.2901 41.8035 28.8664C41.8035 28.4432 42.147 28.1003 42.5696 28.1003ZM42.5696 23.3812C42.9933 23.3812 43.3357 23.7242 43.3357 24.1473C43.3357 24.5705 42.9933 24.9134 42.5696 24.9134C42.147 24.9134 41.8035 24.5705 41.8035 24.1473C41.8035 23.7242 42.147 23.3812 42.5696 23.3812ZM42.5696 18.6622C42.9933 18.6622 43.3357 19.0051 43.3357 19.4283C43.3357 19.8514 42.9933 20.1944 42.5696 20.1944C42.147 20.1944 41.8035 19.8514 41.8035 19.4283C41.8035 19.0051 42.147 18.6622 42.5696 18.6622ZM42.5696 13.9425C42.9933 13.9425 43.3357 14.2861 43.3357 14.7086C43.3357 15.1318 42.9933 15.4747 42.5696 15.4747C42.147 15.4747 41.8035 15.1318 41.8035 14.7086C41.8035 14.2861 42.147 13.9425 42.5696 13.9425ZM44.9389 25.7426C45.3627 25.7426 45.7056 26.0855 45.7056 26.5093C45.7056 26.9318 45.3627 27.2748 44.9389 27.2748C44.5163 27.2748 44.1728 26.9318 44.1728 26.5093C44.1728 26.0855 44.5163 25.7426 44.9389 25.7426ZM44.9389 21.0235C45.3627 21.0235 45.7056 21.3665 45.7056 21.7896C45.7056 22.2128 45.3627 22.5557 44.9389 22.5557C44.5163 22.5557 44.1728 22.2128 44.1728 21.7896C44.1728 21.3665 44.5163 21.0235 44.9389 21.0235ZM44.9389 16.3039C45.3627 16.3039 45.7056 16.6474 45.7056 17.0706C45.7056 17.4937 45.3627 17.8367 44.9389 17.8367C44.5163 17.8367 44.1728 17.4937 44.1728 17.0706C44.1728 16.6474 44.5163 16.3039 44.9389 16.3039ZM38.605 14.7086C38.605 15.1318 38.262 15.4747 37.8389 15.4747V18.6622C38.262 18.6622 38.605 19.0051 38.605 19.4283C38.605 19.8514 38.262 20.1944 37.8389 20.1944V23.3812C38.262 23.3812 38.605 23.7242 38.605 24.1473C38.605 24.5705 38.262 24.9134 37.8389 24.9134V28.1003C38.262 28.1003 38.605 28.4432 38.605 28.8664C38.605 29.2901 38.262 29.6325 37.8389 29.6325V34.2388H37.935C43.1856 34.2388 47.4423 30.142 47.4423 25.0892V18.2813C47.4423 13.2278 43.1856 9.13159 37.935 9.13159H37.8389V13.9425C38.262 13.9425 38.605 14.2861 38.605 14.7086Z" fill="#59231D"/>
<path id="Fill 45" fill-rule="evenodd" clip-rule="evenodd" d="M33.1079 13.9426C32.6853 13.9426 32.3418 14.2862 32.3418 14.7087C32.3418 15.1319 32.6853 15.4748 33.1079 15.4748C33.5311 15.4748 33.874 15.1319 33.874 14.7087C33.874 14.2862 33.5311 13.9426 33.1079 13.9426Z" fill="#FBD88C"/>
<path id="Fill 46" fill-rule="evenodd" clip-rule="evenodd" d="M37.0732 14.7087C37.0732 15.1319 37.4162 15.4748 37.8393 15.4748V13.9426C37.4162 13.9426 37.0732 14.2862 37.0732 14.7087Z" fill="#FBD88C"/>
<path id="Fill 47" fill-rule="evenodd" clip-rule="evenodd" d="M38.605 14.7087C38.605 14.2862 38.262 13.9426 37.8389 13.9426V15.4748C38.262 15.4748 38.605 15.1319 38.605 14.7087Z" fill="#F3B62C"/>
<path id="Fill 48" fill-rule="evenodd" clip-rule="evenodd" d="M42.5698 15.4748C42.9936 15.4748 43.3359 15.1319 43.3359 14.7087C43.3359 14.2862 42.9936 13.9426 42.5698 13.9426C42.1473 13.9426 41.8037 14.2862 41.8037 14.7087C41.8037 15.1319 42.1473 15.4748 42.5698 15.4748Z" fill="#F3B62C"/>
<path id="Fill 49" fill-rule="evenodd" clip-rule="evenodd" d="M30.7466 16.304C30.3234 16.304 29.9805 16.6475 29.9805 17.0707C29.9805 17.4938 30.3234 17.8368 30.7466 17.8368C31.1697 17.8368 31.5127 17.4938 31.5127 17.0707C31.5127 16.6475 31.1697 16.304 30.7466 16.304Z" fill="#FBD88C"/>
<path id="Fill 50" fill-rule="evenodd" clip-rule="evenodd" d="M35.477 16.304C35.0545 16.304 34.7109 16.6475 34.7109 17.0707C34.7109 17.4938 35.0545 17.8368 35.477 17.8368C35.9008 17.8368 36.2437 17.4938 36.2437 17.0707C36.2437 16.6475 35.9008 16.304 35.477 16.304Z" fill="#FBD88C"/>
<path id="Fill 51" fill-rule="evenodd" clip-rule="evenodd" d="M40.2085 17.8368C40.6316 17.8368 40.9752 17.4938 40.9752 17.0707C40.9752 16.6475 40.6316 16.304 40.2085 16.304C39.7853 16.304 39.4424 16.6475 39.4424 17.0707C39.4424 17.4938 39.7853 17.8368 40.2085 17.8368Z" fill="#F3B62C"/>
<path id="Fill 52" fill-rule="evenodd" clip-rule="evenodd" d="M35.477 11.585C35.0545 11.585 34.7109 11.9279 34.7109 12.3511C34.7109 12.7748 35.0545 13.1178 35.477 13.1178C35.9008 13.1178 36.2437 12.7748 36.2437 12.3511C36.2437 11.9279 35.9008 11.585 35.477 11.585Z" fill="#FBD88C"/>
<path id="Fill 53" fill-rule="evenodd" clip-rule="evenodd" d="M40.2085 13.1178C40.6316 13.1178 40.9752 12.7748 40.9752 12.3511C40.9752 11.9279 40.6316 11.585 40.2085 11.585C39.7853 11.585 39.4424 11.9279 39.4424 12.3511C39.4424 12.7748 39.7853 13.1178 40.2085 13.1178Z" fill="#F3B62C"/>
<path id="Fill 54" fill-rule="evenodd" clip-rule="evenodd" d="M44.9389 17.8368C45.3627 17.8368 45.7057 17.4938 45.7057 17.0707C45.7057 16.6475 45.3627 16.304 44.9389 16.304C44.5164 16.304 44.1729 16.6475 44.1729 17.0707C44.1729 17.4938 44.5164 17.8368 44.9389 17.8368Z" fill="#F3B62C"/>
<path id="Fill 55" fill-rule="evenodd" clip-rule="evenodd" d="M33.1079 18.6624C32.6853 18.6624 32.3418 19.0053 32.3418 19.4284C32.3418 19.8516 32.6853 20.1945 33.1079 20.1945C33.5311 20.1945 33.874 19.8516 33.874 19.4284C33.874 19.0053 33.5311 18.6624 33.1079 18.6624Z" fill="#FBD88C"/>
<path id="Fill 56" fill-rule="evenodd" clip-rule="evenodd" d="M37.0732 19.4284C37.0732 19.8516 37.4162 20.1945 37.8393 20.1945V18.6624C37.4162 18.6624 37.0732 19.0053 37.0732 19.4284Z" fill="#FBD88C"/>
<path id="Fill 57" fill-rule="evenodd" clip-rule="evenodd" d="M38.605 19.4284C38.605 19.0053 38.262 18.6624 37.8389 18.6624V20.1945C38.262 20.1945 38.605 19.8516 38.605 19.4284Z" fill="#F3B62C"/>
<path id="Fill 58" fill-rule="evenodd" clip-rule="evenodd" d="M42.5698 20.1945C42.9936 20.1945 43.3359 19.8516 43.3359 19.4284C43.3359 19.0053 42.9936 18.6624 42.5698 18.6624C42.1473 18.6624 41.8037 19.0053 41.8037 19.4284C41.8037 19.8516 42.1473 20.1945 42.5698 20.1945Z" fill="#F3B62C"/>
<path id="Fill 59" fill-rule="evenodd" clip-rule="evenodd" d="M30.7466 21.0237C30.3234 21.0237 29.9805 21.3666 29.9805 21.7898C29.9805 22.2129 30.3234 22.5559 30.7466 22.5559C31.1697 22.5559 31.5127 22.2129 31.5127 21.7898C31.5127 21.3666 31.1697 21.0237 30.7466 21.0237Z" fill="#FBD88C"/>
<path id="Fill 60" fill-rule="evenodd" clip-rule="evenodd" d="M35.477 21.0237C35.0545 21.0237 34.7109 21.3666 34.7109 21.7898C34.7109 22.2129 35.0545 22.5559 35.477 22.5559C35.9008 22.5559 36.2437 22.2129 36.2437 21.7898C36.2437 21.3666 35.9008 21.0237 35.477 21.0237Z" fill="#FBD88C"/>
<path id="Fill 61" fill-rule="evenodd" clip-rule="evenodd" d="M40.2085 22.5559C40.6316 22.5559 40.9752 22.2129 40.9752 21.7898C40.9752 21.3666 40.6316 21.0237 40.2085 21.0237C39.7853 21.0237 39.4424 21.3666 39.4424 21.7898C39.4424 22.2129 39.7853 22.5559 40.2085 22.5559Z" fill="#F3B62C"/>
<path id="Fill 62" fill-rule="evenodd" clip-rule="evenodd" d="M44.9389 22.5559C45.3627 22.5559 45.7057 22.2129 45.7057 21.7898C45.7057 21.3666 45.3627 21.0237 44.9389 21.0237C44.5164 21.0237 44.1729 21.3666 44.1729 21.7898C44.1729 22.2129 44.5164 22.5559 44.9389 22.5559Z" fill="#F3B62C"/>
<path id="Fill 63" fill-rule="evenodd" clip-rule="evenodd" d="M33.1079 23.3813C32.6853 23.3813 32.3418 23.7243 32.3418 24.1474C32.3418 24.5706 32.6853 24.9135 33.1079 24.9135C33.5311 24.9135 33.874 24.5706 33.874 24.1474C33.874 23.7243 33.5311 23.3813 33.1079 23.3813Z" fill="#FBD88C"/>
<path id="Fill 64" fill-rule="evenodd" clip-rule="evenodd" d="M37.0732 24.1474C37.0732 24.5706 37.4162 24.9135 37.8393 24.9135V23.3813C37.4162 23.3813 37.0732 23.7243 37.0732 24.1474Z" fill="#FBD88C"/>
<path id="Fill 65" fill-rule="evenodd" clip-rule="evenodd" d="M38.605 24.1474C38.605 23.7243 38.262 23.3813 37.8389 23.3813V24.9135C38.262 24.9135 38.605 24.5706 38.605 24.1474Z" fill="#F3B62C"/>
<path id="Fill 66" fill-rule="evenodd" clip-rule="evenodd" d="M42.5698 24.9135C42.9936 24.9135 43.3359 24.5706 43.3359 24.1474C43.3359 23.7243 42.9936 23.3813 42.5698 23.3813C42.1473 23.3813 41.8037 23.7243 41.8037 24.1474C41.8037 24.5706 42.1473 24.9135 42.5698 24.9135Z" fill="#F3B62C"/>
<path id="Fill 67" fill-rule="evenodd" clip-rule="evenodd" d="M30.7466 25.7427C30.3234 25.7427 29.9805 26.0856 29.9805 26.5094C29.9805 26.9319 30.3234 27.2749 30.7466 27.2749C31.1697 27.2749 31.5127 26.9319 31.5127 26.5094C31.5127 26.0856 31.1697 25.7427 30.7466 25.7427Z" fill="#FBD88C"/>
<path id="Fill 68" fill-rule="evenodd" clip-rule="evenodd" d="M35.477 25.7427C35.0545 25.7427 34.7109 26.0856 34.7109 26.5094C34.7109 26.9319 35.0545 27.2749 35.477 27.2749C35.9008 27.2749 36.2437 26.9319 36.2437 26.5094C36.2437 26.0856 35.9008 25.7427 35.477 25.7427Z" fill="#FBD88C"/>
<path id="Fill 69" fill-rule="evenodd" clip-rule="evenodd" d="M40.2085 27.2749C40.6316 27.2749 40.9752 26.9319 40.9752 26.5094C40.9752 26.0856 40.6316 25.7427 40.2085 25.7427C39.7853 25.7427 39.4424 26.0856 39.4424 26.5094C39.4424 26.9319 39.7853 27.2749 40.2085 27.2749Z" fill="#F3B62C"/>
<path id="Fill 70" fill-rule="evenodd" clip-rule="evenodd" d="M44.9389 27.2749C45.3627 27.2749 45.7057 26.9319 45.7057 26.5094C45.7057 26.0856 45.3627 25.7427 44.9389 25.7427C44.5164 25.7427 44.1729 26.0856 44.1729 26.5094C44.1729 26.9319 44.5164 27.2749 44.9389 27.2749Z" fill="#F3B62C"/>
<path id="Fill 71" fill-rule="evenodd" clip-rule="evenodd" d="M33.1079 28.1003C32.6853 28.1003 32.3418 28.4433 32.3418 28.8664C32.3418 29.2902 32.6853 29.6325 33.1079 29.6325C33.5311 29.6325 33.874 29.2902 33.874 28.8664C33.874 28.4433 33.5311 28.1003 33.1079 28.1003Z" fill="#FBD88C"/>
<path id="Fill 72" fill-rule="evenodd" clip-rule="evenodd" d="M37.0732 28.8664C37.0732 29.2902 37.4162 29.6325 37.8393 29.6325V28.1003C37.4162 28.1003 37.0732 28.4433 37.0732 28.8664Z" fill="#FBD88C"/>
<path id="Fill 73" fill-rule="evenodd" clip-rule="evenodd" d="M38.605 28.8664C38.605 28.4433 38.262 28.1003 37.8389 28.1003V29.6325C38.262 29.6325 38.605 29.2902 38.605 28.8664Z" fill="#F3B62C"/>
<path id="Fill 74" fill-rule="evenodd" clip-rule="evenodd" d="M42.5698 29.6325C42.9936 29.6325 43.3359 29.2902 43.3359 28.8664C43.3359 28.4433 42.9936 28.1003 42.5698 28.1003C42.1473 28.1003 41.8037 28.4433 41.8037 28.8664C41.8037 29.2902 42.1473 29.6325 42.5698 29.6325Z" fill="#F3B62C"/>
<path id="Fill 75" fill-rule="evenodd" clip-rule="evenodd" d="M35.477 30.4624C35.0545 30.4624 34.7109 30.8053 34.7109 31.2285C34.7109 31.6517 35.0545 31.9946 35.477 31.9946C35.9008 31.9946 36.2437 31.6517 36.2437 31.2285C36.2437 30.8053 35.9008 30.4624 35.477 30.4624Z" fill="#FBD88C"/>
<path id="Fill 76" fill-rule="evenodd" clip-rule="evenodd" d="M40.2085 31.9946C40.6316 31.9946 40.9752 31.6517 40.9752 31.2285C40.9752 30.8053 40.6316 30.4624 40.2085 30.4624C39.7853 30.4624 39.4424 30.8053 39.4424 31.2285C39.4424 31.6517 39.7853 31.9946 40.2085 31.9946Z" fill="#F3B62C"/>
<path id="Fill 77" fill-rule="evenodd" clip-rule="evenodd" d="M37.7431 35.3699C36.9745 35.3699 36.2262 35.2866 35.503 35.136L34.4307 49.8008C34.4307 51.0158 35.416 51.9999 36.6304 51.9999H37.8392V35.3699H37.7431Z" fill="#EF9E53"/>
<path id="Fill 78" fill-rule="evenodd" clip-rule="evenodd" d="M37.8392 35.3701V34.7559H35.5305L35.5029 35.1362C36.2262 35.2868 36.9745 35.3701 37.743 35.3701H37.8392Z" fill="#E1903F"/>
<path id="Fill 79" fill-rule="evenodd" clip-rule="evenodd" d="M37.8389 34.7559V35.3701H37.935C38.7036 35.3701 39.4519 35.2868 40.1751 35.1362L40.147 34.7559H37.8389Z" fill="#EF9E53"/>
</g>
</g>
</svg>
