<svg width="60" height="60" viewBox="0 0 60 60" fill="none" xmlns="http://www.w3.org/2000/svg">
<g id="Service-4">
<g id="Group ">
<path id="Fill 245" fill-rule="evenodd" clip-rule="evenodd" d="M21.599 27.582L21.5741 27.336L16.3875 25.6108C14.9581 25.1366 13.9234 23.9167 13.6891 22.4321L12.9813 17.9968C12.7961 16.839 13.1286 15.6564 13.8923 14.7627C14.6561 13.8697 15.7654 13.3521 16.9418 13.3521H20.1516L20.0528 12.4224H16.9418C13.8986 12.4224 11.5824 15.1449 12.0634 18.1447L12.7713 22.58C13.0615 24.4033 14.3423 25.9128 16.0917 26.492L21.6425 28.334C21.6114 28.0873 21.599 27.8344 21.599 27.582Z" fill="#EC982D"/>
<path id="Fill 246" fill-rule="evenodd" clip-rule="evenodd" d="M47.9485 18.1447L47.24 22.58C46.9504 24.4033 45.669 25.9128 43.9134 26.492L38.3203 28.352C38.3508 28.0991 38.375 27.8412 38.375 27.582L38.3936 27.3478L43.6238 25.6108C45.0469 25.1366 46.0816 23.9167 46.3221 22.4321L47.0306 17.9968C47.2151 16.839 46.882 15.6564 46.1183 14.7627C45.3545 13.8697 44.2396 13.3521 43.0632 13.3521H39.823L39.9156 12.4224H43.0632C46.1065 12.4224 48.4288 15.1449 47.9485 18.1447Z" fill="#F3B62C"/>
<path id="Fill 247" fill-rule="evenodd" clip-rule="evenodd" d="M32.3154 13.2021C34.2761 13.1524 36.2933 13.0294 38.0241 12.7795L36.4934 28.1027C36.2648 29.9496 35.0529 33.2011 32.674 34.3712C32.5522 34.4315 32.4323 34.4943 32.3154 34.5589V13.2021Z" fill="#EECA28"/>
<path id="Fill 249" fill-rule="evenodd" clip-rule="evenodd" d="M29.9676 8V10.8823C24.0322 10.8767 19.1631 10.231 19.1631 9.43866C19.1631 8.64569 23.9911 8 29.9676 8Z" fill="#EC982D"/>
<path id="Fill 251" fill-rule="evenodd" clip-rule="evenodd" d="M40.8084 9.43866C40.8084 9.50888 40.7729 9.57351 40.6965 9.64374V9.64995C39.9396 10.3485 35.4092 10.8823 29.9678 10.8823V8C35.9381 8 40.8084 8.64569 40.8084 9.43866Z" fill="#F3B62C"/>
<path id="Fill 252" fill-rule="evenodd" clip-rule="evenodd" d="M22.791 50.5329C22.791 50.4738 22.809 50.4092 22.85 50.3508L22.791 50.5329Z" fill="#A84266"/>
<path id="Fill 254" fill-rule="evenodd" clip-rule="evenodd" d="M29.9676 50.5328V52.0001C25.9928 52.0001 22.7911 51.3426 22.7911 50.5328L22.8502 50.3507L22.8558 50.3389C23.7662 47.5915 26.0202 45.5015 28.8322 44.8086L28.9435 44.7794L28.7912 40.4765C28.7322 38.9148 28.0219 37.3885 26.1731 36.4781C22.9266 34.8816 21.3705 30.9074 21.0535 28.3358L19.1631 9.43872C19.1631 10.2311 24.0322 10.8768 29.9676 10.8824V50.5328Z" fill="#FBE15B"/>
<path id="Fill 255" fill-rule="evenodd" clip-rule="evenodd" d="M29.9678 50.5328V52.0001C33.942 52.0001 37.1437 51.3426 37.1437 50.5328L37.0846 50.3507L37.079 50.3389C36.1692 47.5915 33.9146 45.5015 31.1025 44.8086L30.9913 44.7794L31.1436 40.4765C31.2026 38.9148 31.9129 37.3885 33.7624 36.4781C37.0088 34.8816 38.5643 30.9074 38.8813 28.3358L40.7717 9.43872C40.7717 10.2311 35.9026 10.8768 29.9678 10.8824V50.5328Z" fill="#F8D82B"/>
<path id="Fill 256" fill-rule="evenodd" clip-rule="evenodd" d="M32.3154 13.2028C34.7584 13.1437 36.6333 12.994 38.0763 12.7852L36.545 28.1021C36.3163 29.9496 35.1045 33.2011 32.7256 34.3713C32.5851 34.4403 32.4484 34.5123 32.3154 34.5875V13.2028Z" fill="#F2BA27"/>
<path id="Fill 257" fill-rule="evenodd" clip-rule="evenodd" d="M27.6189 34.5869C27.4853 34.5123 27.3492 34.4403 27.2094 34.3719C24.8304 33.2011 23.618 29.9496 23.3837 28.0486L21.8574 12.7852C23.3011 12.994 25.176 13.1437 27.6189 13.2028V34.5869Z" fill="#FDEA97"/>
</g>
</g>
</svg>
