<svg width="60" height="60" viewBox="0 0 60 60" fill="none" xmlns="http://www.w3.org/2000/svg">
<g id="Service-6">
<g id="Group ">
<path id="Fill 22" fill-rule="evenodd" clip-rule="evenodd" d="M29.9995 17.974V16.6197H20.11L17.3078 13.8166C15.4058 11.9145 12.8743 10.866 10.1872 10.866C7.49292 10.866 4.96141 11.9145 3.0594 13.8166L2.95058 13.9263C1.04948 15.8274 0 18.3589 0 21.0532C0 23.7466 1.04948 26.279 2.95058 28.181L4.48028 29.7035L2.95058 31.2341C1.04948 33.1361 0 35.6667 0 38.361C0 41.0553 1.04948 43.5868 2.95058 45.4888L3.0594 45.5904C4.96141 47.4996 7.49292 48.5419 10.1872 48.5419C12.8743 48.5419 15.4058 47.4996 17.3078 45.5904L20.11 42.7945H29.9995V41.4411H19.548L16.3528 44.6363C14.708 46.2811 12.5155 47.1876 10.1872 47.1876C7.85174 47.1876 5.66555 46.2811 4.01445 44.6363L3.90563 44.5274C0.507202 41.1299 0.507202 35.5921 3.91193 32.1882L6.39668 29.7035L3.91193 27.2196C2.26083 25.5748 1.35344 23.3814 1.35344 21.0532C1.35344 18.724 2.26083 16.5315 3.91193 14.8795L4.01445 14.7788C5.66555 13.1268 7.85174 12.2194 10.1872 12.2194C12.5155 12.2194 14.708 13.1268 16.3528 14.7788L19.548 17.974H29.9995Z" fill="#F3B62C"/>
<path id="Fill 23" fill-rule="evenodd" clip-rule="evenodd" d="M55.1335 33.1496C58.0103 36.0264 58.0103 40.6964 55.1335 43.5733L55.0238 43.6812C53.5831 45.1165 51.7009 45.8341 49.8123 45.8341C47.9238 45.8341 46.0425 45.1165 44.6009 43.6812L41.0065 40.0867H30V19.3265H41.0065L44.6009 15.7329C46.0425 14.2977 47.9238 13.5737 49.8123 13.5737C51.7009 13.5737 53.5831 14.2977 55.0238 15.7329L55.1335 15.8409C58.0103 18.7186 58.0103 23.3886 55.1335 26.2646L51.6874 29.7035L55.1335 33.1496Z" fill="#F8D82B"/>
<path id="Fill 24" fill-rule="evenodd" clip-rule="evenodd" d="M55.5184 29.7035L57.0418 28.181C58.951 26.279 60.0005 23.7466 60.0005 21.0532C60.0005 18.3589 58.951 15.8274 57.0418 13.9263L56.9402 13.8166C55.0381 11.9145 52.5066 10.866 49.8123 10.866C47.1181 10.866 44.5865 11.9145 42.6854 13.8166L39.8886 16.6197H30V17.974H40.4444L43.6459 14.7788C45.2907 13.1268 47.4841 12.2194 49.8123 12.2194C52.1406 12.2194 54.334 13.1268 55.9788 14.7788L56.0876 14.8795C57.7324 16.5315 58.6461 18.724 58.6461 21.0532C58.6461 23.3814 57.7324 25.5748 56.0876 27.2196L53.6029 29.7035L56.0876 32.1882C59.4923 35.5921 59.4923 41.1299 56.0876 44.5274L55.986 44.6363C54.334 46.2811 52.1406 47.1876 49.8123 47.1876C47.4841 47.1876 45.2907 46.2811 43.6459 44.6363L40.4444 41.4411H30V42.7945H39.8886L42.6854 45.5904C44.5865 47.4996 47.1181 48.5419 49.8123 48.5419C52.5066 48.5419 55.0381 47.4996 56.9402 45.5904L57.0418 45.4888C58.951 43.5868 60.0005 41.0553 60.0005 38.361C60.0005 35.6667 58.951 33.1361 57.0418 31.2341L55.5184 29.7035Z" fill="#EC982D"/>
<path id="Fill 25" fill-rule="evenodd" clip-rule="evenodd" d="M56.0876 32.1883C59.4923 35.5921 59.4923 41.13 56.0876 44.5275L55.986 44.6363C54.334 46.2811 52.1406 47.1876 49.8123 47.1876C47.4841 47.1876 45.2907 46.2811 43.6459 44.6363L40.4444 41.4411H30V40.0868H41.0065L44.6009 43.6813C46.0425 45.1166 47.9238 45.8342 49.8123 45.8342C51.7009 45.8342 53.5831 45.1166 55.0238 43.6813L55.1335 43.5734C58.0103 40.6965 58.0103 36.0265 55.1335 33.1497L51.6874 29.7036L55.1335 26.2647C58.0103 23.3887 58.0103 18.7187 55.1335 15.8409L55.0238 15.733C53.5831 14.2978 51.7009 13.5738 49.8123 13.5738C47.9238 13.5738 46.0425 14.2978 44.6009 15.733L41.0065 19.3266H30V17.9741H40.4444L43.6459 14.7789C45.2907 13.1269 47.4841 12.2195 49.8123 12.2195C52.1406 12.2195 54.334 13.1269 55.9788 14.7789L56.0876 14.8796C57.7324 16.5316 58.6461 18.7241 58.6461 21.0532C58.6461 23.3815 57.7324 25.5749 56.0876 27.2197L53.6029 29.7036L56.0876 32.1883Z" fill="#FBE15B"/>
<path id="Fill 26" fill-rule="evenodd" clip-rule="evenodd" d="M29.9992 19.3265V40.0867H18.9864L15.3991 43.6812C13.9567 45.1165 12.0691 45.8341 10.1868 45.8341C8.29742 45.8341 6.4098 45.1165 4.97453 43.6812L4.86662 43.5733C1.98977 40.6964 1.98977 36.0264 4.86662 33.1496L8.30462 29.7035L4.86662 26.2646C1.98977 23.3886 1.98977 18.7186 4.86662 15.8409L4.97453 15.7329C6.4098 14.2977 8.29742 13.5737 10.1868 13.5737C12.0691 13.5737 13.9567 14.2977 15.3991 15.7329L18.9864 19.3265H29.9992Z" fill="#FBE15B"/>
<path id="Fill 27" fill-rule="evenodd" clip-rule="evenodd" d="M4.86706 15.8409C1.99022 18.7187 1.99022 23.3887 4.86706 26.2647L8.30506 29.7036L4.86706 33.1497C1.99022 36.0265 1.99022 40.6965 4.86706 43.5734L4.97497 43.6813C6.41025 45.1166 8.29786 45.8342 10.1873 45.8342C12.0695 45.8342 13.9571 45.1166 15.3996 43.6813L18.9869 40.0868H29.9996V41.4411H19.548L16.3528 44.6363C14.708 46.2811 12.5156 47.1876 10.1873 47.1876C7.85181 47.1876 5.66563 46.2811 4.01453 44.6363L3.90571 44.5275C0.50728 41.13 0.50728 35.5921 3.91201 32.1883L6.39676 29.7036L3.91201 27.2197C2.2609 25.5749 1.35352 23.3815 1.35352 21.0532C1.35352 18.7241 2.2609 16.5316 3.91201 14.8796L4.01453 14.7789C5.66563 13.1269 7.85181 12.2195 10.1873 12.2195C12.5156 12.2195 14.708 13.1269 16.3528 14.7789L19.548 17.9741H29.9996V19.3266H18.9869L15.3996 15.733C13.9571 14.2978 12.0695 13.5738 10.1873 13.5738C8.29786 13.5738 6.41025 14.2978 4.97497 15.733L4.86706 15.8409Z" fill="#F8D82B"/>
<path id="Fill 28" fill-rule="evenodd" clip-rule="evenodd" d="M39.8498 34.6218L39.6295 33.8673C39.7743 34.111 39.8498 34.361 39.8498 34.6218Z" fill="#F3BE27"/>
<path id="Fill 29" fill-rule="evenodd" clip-rule="evenodd" d="M24.9787 38.5426C24.3168 38.5426 23.7359 38.2413 23.5003 37.3222L23.3132 36.5929C23.0569 35.5929 23.4751 34.5308 24.3052 34.0731L25.5129 33.4076C26.253 32.9993 26.7953 32.2439 26.9922 31.3428L27.0669 30.9993C27.3861 29.5433 28.5471 28.519 29.8799 28.519H29.9033V37.3735L29.8268 37.3762C28.6793 37.4149 27.5543 37.7071 26.4814 38.1703C26.0093 38.3744 25.4715 38.5426 24.9787 38.5426Z" fill="#F8C630"/>
<path id="Fill 30" fill-rule="evenodd" clip-rule="evenodd" d="M26.4913 28.5408C26.4913 28.5408 24.5578 28.101 24.5704 25.6333C24.5767 24.6073 25.5146 22.4391 26.9661 21.7142C27.2008 21.5964 27.4139 21.5479 27.6073 21.5479C28.6118 21.5479 29.0713 22.8752 29.0713 22.8752C29.0713 22.8752 29.1433 25.9958 29.0713 27.1567C28.9985 28.3186 26.4913 28.5408 26.4913 28.5408Z" fill="#F8C630"/>
<path id="Fill 31" fill-rule="evenodd" clip-rule="evenodd" d="M22.9463 33.2907C22.4616 33.2907 20.9949 33.1252 20.3123 31.1989C19.9697 30.2313 20.118 27.8742 21.2368 26.6998C21.5443 26.3769 21.8609 26.26 22.1603 26.26C22.9508 26.26 23.6118 27.0784 23.6118 27.0784C23.6118 27.0784 24.7377 29.9903 25.0624 31.1072C25.3879 32.2241 23.1046 33.2835 23.1046 33.2835C23.1046 33.2835 23.047 33.2907 22.9463 33.2907Z" fill="#F8C630"/>
<path id="Fill 32" fill-rule="evenodd" clip-rule="evenodd" d="M34.8274 38.5427C34.3346 38.5427 33.7968 38.3745 33.3247 38.1703C32.259 37.7099 31.1412 37.4176 30 37.3772V28.52C31.3022 28.5569 32.4263 29.5704 32.7392 30.9994L32.8139 31.3429C33.0117 32.244 33.5531 32.9994 34.2941 33.4077L35.5001 34.0732C36.331 34.5309 36.7492 35.593 36.4938 36.593L36.3059 37.3223C36.0702 38.2414 35.4893 38.5427 34.8274 38.5427Z" fill="#F3BE27"/>
<path id="Fill 33" fill-rule="evenodd" clip-rule="evenodd" d="M29.9997 37.3771C29.9934 37.3762 29.9862 37.3762 29.9799 37.3762L29.9035 37.3735V28.519H29.926C29.9512 28.519 29.9754 28.519 29.9997 28.5199V37.3771Z" fill="#F8C630"/>
<path id="Fill 34" fill-rule="evenodd" clip-rule="evenodd" d="M33.3147 28.5408C33.3147 28.5408 30.8083 28.3186 30.7355 27.1567C30.6627 25.9958 30.7355 22.8752 30.7355 22.8752C30.7355 22.8752 31.195 21.5479 32.1996 21.5479C32.3929 21.5479 32.606 21.5964 32.8398 21.7142C34.2922 22.4391 35.2302 24.6073 35.2347 25.6333C35.2482 28.101 33.3147 28.5408 33.3147 28.5408Z" fill="#F3BE27"/>
<path id="Fill 35" fill-rule="evenodd" clip-rule="evenodd" d="M36.8606 33.2907C36.7599 33.2907 36.7015 33.2835 36.7015 33.2835C36.7015 33.2835 34.4181 32.2241 34.7437 31.1072C35.0692 29.9903 36.1951 27.0784 36.1951 27.0784C36.1951 27.0784 36.8552 26.26 37.6457 26.26C37.9443 26.26 38.2617 26.3769 38.5693 26.6998C39.6889 27.8742 39.8373 30.2313 39.4938 31.1989C38.8112 33.1252 37.3444 33.2907 36.8606 33.2907Z" fill="#F3BE27"/>
</g>
</g>
</svg>
