<svg width="61" height="60" viewBox="0 0 61 60" fill="none" xmlns="http://www.w3.org/2000/svg">
<g clip-path="url(#clip0_606_168)">
<rect x="1.08301" y="1.00073" width="57.9972" height="58" rx="7" fill="#FBF9FF" stroke="#EBE5F7" stroke-width="2"/>
<path d="M34.9568 35.1257H33.7381C32.6209 35.6843 31.4021 35.9382 30.0818 35.9382C28.7615 35.9382 27.492 35.6843 26.3748 35.1257H25.2068C21.6014 35.1257 18.7068 38.071 18.7068 41.6257C18.7068 42.5398 19.4178 43.2507 20.3318 43.2507H39.8318C40.6951 43.2507 41.4568 42.5398 41.4568 41.6257C41.4568 38.071 38.5115 35.1257 34.9568 35.1257ZM21.1443 28.6257C21.5506 28.6257 21.9568 28.2703 21.9568 27.8132V27.0007C21.9568 22.532 25.5623 18.8757 30.0818 18.8757C34.5506 18.8757 38.2068 22.532 38.2068 27.0007V27.8132C38.156 30.0984 36.3787 31.8757 34.1443 31.8757H32.5193C32.5193 31.0125 31.7576 30.2507 30.8943 30.2507H29.2693C28.3553 30.2507 27.6443 31.0125 27.6443 31.8757C27.6443 32.7898 28.3553 33.5007 29.2693 33.5007H34.1443C37.242 33.5007 39.781 30.9617 39.8318 27.8132V27.0007C39.8318 21.6687 35.4139 17.2507 30.0818 17.2507C24.699 17.2507 20.3318 21.6687 20.3318 27.0007V27.8132C20.3318 28.2703 20.6873 28.6257 21.1443 28.6257ZM29.2693 28.6257H30.8943C32.0623 28.6765 33.1287 29.2859 33.6873 30.2507H34.1443C35.4646 30.2507 36.531 29.1843 36.5818 27.8132V27.0007C36.5818 23.446 33.6365 20.5007 30.0818 20.5007C26.4764 20.5007 23.5818 23.446 23.5818 27.0007C23.5818 29.0828 24.5467 30.8601 26.0193 32.0789C26.0193 32.0281 26.0193 31.9773 26.0193 31.8757C26.0193 30.0984 27.4412 28.6765 29.2693 28.6257Z" fill="#7C58D3"/>
</g>
<defs>
<clipPath id="clip0_606_168">
<rect width="59.9972" height="60" fill="white" transform="translate(0.0830078 0.000732422)"/>
</clipPath>
</defs>
</svg>
