<svg width="61" height="60" viewBox="0 0 61 60" fill="none" xmlns="http://www.w3.org/2000/svg">
<g clip-path="url(#clip0_606_499)">
<rect x="1.08301" y="1.00073" width="57.9972" height="58" rx="7" fill="#FBF9FF" stroke="#EBE5F7" stroke-width="2"/>
<path d="M45.5193 35.1257H44.7068V29.6414C44.7068 29.032 44.4021 28.3718 43.9451 27.9148L38.9178 22.8875C38.4607 22.4304 37.8006 22.1257 37.1912 22.1257H34.9568V19.6882C34.9568 18.3679 33.8396 17.2507 32.5193 17.2507H19.5193C18.1482 17.2507 17.0818 18.3679 17.0818 19.6882V22.1257H14.2381C13.9842 22.1257 13.8318 22.3289 13.8318 22.532V23.3445C13.8318 23.5984 13.9842 23.7507 14.2381 23.7507H28.0506C28.2537 23.7507 28.4568 23.9539 28.4568 24.157V24.9695C28.4568 25.2234 28.2537 25.3757 28.0506 25.3757H15.8631C15.6092 25.3757 15.4568 25.5789 15.4568 25.782V26.5945C15.4568 26.8484 15.6092 27.0007 15.8631 27.0007H26.4256C26.6287 27.0007 26.8318 27.2039 26.8318 27.407V28.2195C26.8318 28.4734 26.6287 28.6257 26.4256 28.6257H14.2381C13.9842 28.6257 13.8318 28.8289 13.8318 29.032V29.8445C13.8318 30.0984 13.9842 30.2507 14.2381 30.2507H24.8006C25.0037 30.2507 25.2068 30.4539 25.2068 30.657V31.4695C25.2068 31.7234 25.0037 31.8757 24.8006 31.8757H17.0818V38.3757C17.0818 41.0671 19.2654 43.2507 21.9568 43.2507C24.6482 43.2507 26.8318 41.0671 26.8318 38.3757H33.3318C33.3318 41.0671 35.5154 43.2507 38.2068 43.2507C40.8982 43.2507 43.0818 41.0671 43.0818 38.3757H45.5193C45.9256 38.3757 46.3318 38.0203 46.3318 37.5632V35.9382C46.3318 35.532 45.9256 35.1257 45.5193 35.1257ZM21.9568 40.8132C20.5857 40.8132 19.5193 39.7468 19.5193 38.3757C19.5193 37.0554 20.5857 35.9382 21.9568 35.9382C23.2771 35.9382 24.3943 37.0554 24.3943 38.3757C24.3943 39.7468 23.2771 40.8132 21.9568 40.8132ZM38.2068 40.8132C36.8357 40.8132 35.7693 39.7468 35.7693 38.3757C35.7693 37.0554 36.8357 35.9382 38.2068 35.9382C39.5271 35.9382 40.6443 37.0554 40.6443 38.3757C40.6443 39.7468 39.5271 40.8132 38.2068 40.8132ZM42.2693 30.2507H34.9568V24.5632H37.1912L42.2693 29.6414V30.2507Z" fill="#7C58D3"/>
</g>
<defs>
<clipPath id="clip0_606_499">
<rect width="59.9972" height="60" fill="white" transform="translate(0.0830078 0.000732422)"/>
</clipPath>
</defs>
</svg>
